<?xml version="1.0" encoding="UTF-8"?>
<svg width="178px" height="178px" viewBox="0 0 178 178" version="1.1" xmlns="http://www.w3.org/2000/svg" xmlns:xlink="http://www.w3.org/1999/xlink">
    <title>Fire</title>
    <g id="Page-1" stroke="none" stroke-width="1" fill="none" fill-rule="evenodd">
        <g id="Fire" transform="translate(0.737000, 0.843000)">
            <g id="Group-13">
                <path d="M88.19,0 C137.011,0 176.491,39.48 176.491,88.19 C176.491,137.011 137.011,176.491 88.19,176.491 C39.479,176.491 0,137.011 0,88.19 C0,39.48 39.479,0 88.19,0" id="Fill-11" fill="#F94424"></path>
                <path d="M88.19,0 C137.011,0 176.491,39.48 176.491,88.19 C176.491,137.011 137.011,176.491 88.19,176.491 L88.19,0" id="Fill-12" fill="#D52000"></path>
            </g>
            <path d="M30.583,108.653 C33.14,109.542 33.919,114.992 38.812,114.547 C41.259,114.325 40.814,113.768 39.813,111.655 C37.033,105.538 29.804,89.079 36.032,77.736 C43.817,63.724 50.378,57.829 51.045,54.382 C51.601,51.046 55.716,59.053 51.045,68.394 C48.043,74.288 49.933,78.848 51.713,81.406 C54.715,85.521 53.603,83.074 53.937,79.849 C54.604,73.732 57.829,61.499 72.509,53.159 C92.749,41.704 75.957,23.354 79.293,21.797 C82.741,20.24 102.981,28.581 109.876,53.492 C116.659,78.403 109.208,85.521 113.212,87.078 C117.327,88.635 138.79,74.066 141.571,68.172 C142.238,66.837 143.128,67.282 143.906,69.062 C146.464,74.845 147.799,93.973 133.675,106.429 C132.229,107.652 130.894,109.32 133.786,109.098 C138.457,108.875 146.241,107.54 151.913,102.314 C155.138,99.534 156.584,94.529 155.805,102.981 C155.25,108.764 152.025,118.217 138.235,125.557 C128.67,130.672 122.22,141.349 111.433,148.244 C100.089,155.472 83.741,156.584 71.063,152.581 C55.049,147.687 59.053,135.12 42.482,127.336 C33.697,123.221 29.582,112.879 29.47,109.542 C29.47,108.653 29.693,108.43 30.583,108.653" id="Fill-14" fill="#B80808"></path>
            <path d="M88.19,24.355 C95.641,28.47 105.428,37.589 109.876,53.492 C116.659,78.403 109.208,85.521 113.212,87.078 C117.327,88.635 138.79,74.066 141.571,68.172 C142.238,66.837 143.128,67.282 143.906,69.062 C146.464,74.845 147.799,93.973 133.675,106.429 C132.229,107.652 130.894,109.32 133.786,109.098 C138.457,108.875 146.241,107.54 151.913,102.314 C155.138,99.534 156.584,94.529 155.805,102.981 C155.25,108.764 152.025,118.217 138.235,125.557 C128.67,130.672 122.22,141.349 111.433,148.244 C104.871,152.47 96.531,154.582 88.19,154.916 L88.19,24.355" id="Fill-15" fill="#920202"></path>
            <path d="M85.298,151.024 C85.298,151.024 69.951,150.579 65.836,142.016 C61.611,133.453 69.951,131.34 66.726,126.78 C63.501,122.22 61.166,118.217 64.613,119.44 C67.949,120.663 77.625,127.225 78.07,121.664 C78.514,115.993 73.065,108.43 77.958,102.536 C82.741,96.642 87.856,95.085 88.078,88.079 C88.19,81.073 94.084,92.082 90.525,97.643 C86.967,103.314 83.519,104.871 89.191,108.986 C94.751,113.212 96.197,111.322 95.863,116.326 C95.53,121.33 103.092,124.111 107.318,117.327 C111.544,110.432 105.205,101.313 106.428,101.535 C107.652,101.869 115.325,113.88 111.099,121.664 C109.097,125.334 109.208,126.891 109.876,128.448 C117.994,147.243 100.757,151.469 85.298,151.024" id="Fill-16" fill="#EBB32A"></path>
            <path d="M88.19,108.319 C88.523,108.541 88.857,108.764 89.191,108.986 C94.751,113.212 96.197,111.322 95.863,116.326 C95.53,121.33 103.092,124.111 107.318,117.327 C111.544,110.432 105.205,101.313 106.428,101.535 C107.652,101.869 115.325,113.88 111.099,121.664 C109.097,125.334 109.208,126.891 109.876,128.448 C117.438,146.019 102.869,150.801 88.19,151.024 L88.19,108.319 Z M88.19,86.522 C89.191,83.074 93.75,92.638 90.525,97.643 C89.747,98.977 88.968,99.978 88.19,100.979 L88.19,86.522 L88.19,86.522 Z" id="Fill-17" fill="#E7832C"></path>
        </g>
    </g>
</svg>