<?xml version="1.0" encoding="UTF-8"?>
<svg width="177px" height="178px" viewBox="0 0 177 178" version="1.1" xmlns="http://www.w3.org/2000/svg" xmlns:xlink="http://www.w3.org/1999/xlink">
    <title>Rock</title>
    <g id="Page-1" stroke="none" stroke-width="1" fill="none" fill-rule="evenodd">
        <g id="Rock" transform="translate(0.415000, 0.843000)">
            <g id="Group-36">
                <path d="M88.3,0 C137.01,0 176.495,39.48 176.495,88.19 C176.495,137.011 137.01,176.491 88.3,176.491 C39.479,176.491 0,137.011 0,88.19 C0,39.48 39.479,0 88.3,0" id="Fill-34" fill="#9C8E54"></path>
                <path d="M88.3,0 C137.01,0 176.495,39.48 176.495,88.19 C176.495,137.011 137.01,176.491 88.3,176.491 L88.3,0" id="Fill-35" fill="#7B7045"></path>
            </g>
            <path d="M140.792,106.762 C142.682,110.766 144.461,114.88 146.13,118.995 C149.466,127.002 149.132,130.005 138.568,133.008 C134.23,134.231 128.448,135.232 121.775,135.899 C115.769,136.566 116.548,133.119 119.106,129.115 L130.338,110.432 C135.565,101.98 136.455,97.532 140.792,106.762 Z M37.922,133.008 C27.468,130.005 27.024,127.002 30.36,118.995 C43.038,87.968 61.61,58.941 78.18,41.259 C81.294,37.923 85.631,38.479 89.19,41.259 C94.417,45.151 95.307,51.713 100.2,58.274 C101.979,60.721 114.879,60.276 116.66,62.945 C118.216,65.281 119.884,67.838 121.441,70.508 C123.332,73.732 125.111,76.958 126.779,79.96 C130.449,86.522 131.117,88.635 127.113,95.196 L105.76,130.227 C102.424,135.677 99.533,137.456 93.194,137.456 C71.841,137.79 49.599,136.233 37.922,133.008 L37.922,133.008 Z" id="Fill-37" fill="#C8B35D"></path>
            <path d="M140.792,106.762 C142.682,110.766 144.461,114.88 146.13,118.995 C149.466,127.002 149.132,130.005 138.568,133.008 C134.23,134.231 128.448,135.232 121.775,135.899 C115.769,136.566 116.548,133.119 119.106,129.115 L130.338,110.432 C135.565,101.98 136.455,97.532 140.792,106.762 Z M113.434,36.477 C117.994,36.477 124,41.259 124,45.596 C124,49.822 118.105,55.161 113.545,55.161 C108.875,55.161 107.428,49.822 107.428,45.596 C107.428,41.259 108.763,36.477 113.434,36.477 Z M88.3,40.592 C88.523,40.703 88.857,40.925 89.19,41.259 C94.417,45.151 95.307,51.713 100.2,58.274 C101.979,60.721 114.879,60.276 116.66,62.945 C118.216,65.281 119.884,67.838 121.441,70.508 C123.332,73.732 125.111,76.958 126.779,79.96 C130.449,86.522 131.117,88.635 127.113,95.196 L105.76,130.227 C102.424,135.677 99.533,137.456 93.194,137.456 C91.526,137.567 89.857,137.567 88.3,137.567 L88.3,40.592 L88.3,40.592 Z" id="Fill-38" fill="#AB994D"></path>
        </g>
    </g>
</svg>