<?xml version="1.0" encoding="UTF-8"?>
<svg width="177px" height="177px" viewBox="0 0 177 177" version="1.1" xmlns="http://www.w3.org/2000/svg" xmlns:xlink="http://www.w3.org/1999/xlink">
    <title>Ghost</title>
    <g id="Page-1" stroke="none" stroke-width="1" fill="none" fill-rule="evenodd">
        <g id="Ghost" transform="translate(0.331000, 0.320000)">
            <path d="M88.3,0 C137.011,0 176.491,39.48 176.491,88.19 C176.491,136.9 137.011,176.38 88.3,176.38 C39.59,176.38 0,136.9 0,88.19 C0,39.48 39.59,0 88.3,0" id="Fill-62" fill="#555597"></path>
            <path d="M88.3,0 C137.011,0 176.491,39.48 176.491,88.19 C176.491,136.9 137.011,176.38 88.3,176.38 L88.3,0" id="Fill-63" fill="#34345F"></path>
            <path d="M141.237,108.431 C145.352,107.986 150.467,102.425 151.691,97.198 C153.136,91.304 150.022,85.632 144.795,84.52 C136.455,82.963 133.119,109.209 141.237,108.431 Z M127.558,109.654 C121.886,116.327 110.765,112.323 105.205,107.43 C99.644,102.648 98.866,94.418 103.537,88.969 C109.32,82.185 133.341,103.093 127.558,109.654 Z M90.748,130.895 C90.636,134.677 94.529,133.564 96.752,133.342 C97.753,133.342 98.643,133.342 99.31,134.12 C101.312,136.456 103.314,133.453 106.65,134.898 C114.324,138.124 111.432,121.442 101.423,120.997 C96.864,120.775 90.969,123.556 90.748,130.895 Z M154.693,112.99 C154.137,115.993 154.916,116.994 156.472,117.327 C159.364,117.884 160.921,118.217 162.701,120.553 C164.591,122.999 166.926,121.554 166.815,116.549 C166.592,108.764 156.584,104.427 154.693,112.99 Z M9.119,91.527 C7.895,106.873 17.237,76.291 38.923,68.284 C79.07,53.493 85.965,94.307 99.867,109.543 C134.564,147.243 173.711,100.757 155.694,59.164 C126.557,-8.785 15.569,13.234 9.119,91.527 L9.119,91.527 Z" id="Fill-64" fill="#CBCBF0"></path>
            <path d="M141.237,108.431 C145.352,107.986 150.467,102.425 151.691,97.198 C153.136,91.304 150.022,85.632 144.795,84.52 C136.455,82.963 133.119,109.209 141.237,108.431 Z M127.558,109.654 C121.886,116.327 110.765,112.323 105.205,107.43 C99.644,102.648 98.866,94.418 103.537,88.969 C109.32,82.185 133.341,103.093 127.558,109.654 Z M90.748,130.895 C90.636,134.677 94.529,133.564 96.752,133.342 C97.753,133.342 98.643,133.342 99.31,134.12 C101.312,136.456 103.314,133.453 106.65,134.898 C114.324,138.124 111.432,121.442 101.423,120.997 C96.864,120.775 90.969,123.556 90.748,130.895 Z M154.693,112.99 C154.137,115.993 154.916,116.994 156.472,117.327 C159.364,117.884 160.921,118.217 162.701,120.553 C164.591,122.999 166.926,121.554 166.815,116.549 C166.592,108.764 156.584,104.427 154.693,112.99 Z M88.3,91.415 C92.193,98.31 95.752,104.983 99.867,109.543 C134.564,147.243 173.711,100.757 155.694,59.164 C143.239,30.139 115.992,17.572 88.3,18.684 L88.3,91.415 L88.3,91.415 Z" id="Fill-65" fill="#AFAFEA"></path>
        </g>
    </g>
</svg>