<?xml version="1.0" encoding="UTF-8"?>
<svg width="177px" height="177px" viewBox="0 0 177 177" version="1.1" xmlns="http://www.w3.org/2000/svg" xmlns:xlink="http://www.w3.org/1999/xlink">
    <title>Dragon</title>
    <g id="Page-1" stroke="none" stroke-width="1" fill="none" fill-rule="evenodd">
        <g id="Dragon" transform="translate(0.257000, 0.320000)">
            <path d="M88.19,0 C137.012,0 176.492,39.48 176.492,88.19 C176.492,136.9 137.012,176.38 88.19,176.38 C39.48,176.38 0,136.9 0,88.19 C0,39.48 39.48,0 88.19,0" id="Fill-57" fill="#5F4DDE"></path>
            <path d="M88.19,0 C137.012,0 176.492,39.48 176.492,88.19 C176.492,136.9 137.012,176.38 88.19,176.38 L88.19,0" id="Fill-58" fill="#382D84"></path>
            <path d="M84.854,112.768 C79.071,117.884 79.627,117.661 68.506,127.893 C62.278,133.564 60.388,134.787 61.611,135.121 C64.391,136.011 87.968,135.344 83.408,118.328 C83.186,117.55 85.076,114.547 85.743,112.99 C86.3,111.434 85.521,112.101 84.854,112.768 Z M67.95,29.471 C113.101,3.226 168.707,41.927 155.918,98.31 C142.239,157.919 83.853,165.37 37.923,145.241 C27.47,140.682 27.914,131.896 36.477,125.224 C81.518,90.526 85.855,70.063 88.746,69.729 C92.75,69.285 87.523,101.869 96.642,104.761 C106.54,107.764 123.778,89.303 123.333,65.837 C122.999,42.372 98.978,28.581 68.061,33.809 C60.388,35.032 60.944,33.475 67.95,29.471 L67.95,29.471 Z" id="Fill-59" fill="#DAD4FF"></path>
            <path d="M88.19,22.02 C128.004,15.014 166.816,50.156 155.918,98.31 C147.021,137.012 119.218,153.693 88.19,155.14 L88.19,69.952 C88.413,69.841 88.635,69.729 88.746,69.729 C92.75,69.285 87.523,101.869 96.642,104.761 C106.54,107.764 123.778,89.303 123.333,65.837 C122.999,47.821 108.875,35.476 88.19,33.141 L88.19,22.02" id="Fill-60" fill="#A396FF"></path>
        </g>
    </g>
</svg>