<?xml version="1.0" encoding="UTF-8"?>
<svg width="177px" height="178px" viewBox="0 0 177 178" version="1.1" xmlns="http://www.w3.org/2000/svg" xmlns:xlink="http://www.w3.org/1999/xlink">
    <title>Steel</title>
    <g id="Page-1" stroke="none" stroke-width="1" fill="none" fill-rule="evenodd">
        <g id="Steel" transform="translate(0.500000, 0.843000)">
            <g id="Group-43" transform="translate(0.000000, 0.000000)">
                <path d="M88.19,0 C136.9,0 176.49,39.48 176.49,88.19 C176.49,137.011 136.9,176.491 88.19,176.491 C39.48,176.491 0,137.011 0,88.19 C0,39.48 39.48,0 88.19,0" id="Fill-41" fill="#8989A5"></path>
                <path d="M88.19,0 C136.9,0 176.49,39.48 176.49,88.19 C176.49,137.011 136.9,176.491 88.19,176.491 L88.19,0" id="Fill-42" fill="#696986"></path>
            </g>
            <path d="M33.81,42.816 L50.49,33.141 C52.27,32.14 54.05,32.029 55.71,33.03 L63.5,37.478 C66.39,39.146 65.95,40.814 63.39,42.26 L40.92,55.161 C37.7,56.829 35.47,60.832 35.7,64.391 L35.7,90.192 C35.7,93.194 34.47,94.418 31.69,92.749 L23.91,88.301 C22.13,87.3 21.35,85.743 21.35,83.63 L21.35,64.391 C21.35,54.827 25.47,47.598 33.81,42.816 Z M155.14,64.613 L155.14,83.964 C155.14,85.966 154.36,87.523 152.58,88.523 L144.79,92.972 C141.9,94.64 140.79,93.528 140.79,90.525 L140.79,64.613 C141.01,60.943 138.68,57.051 135.45,55.494 L113.1,42.482 C110.43,41.037 109.99,39.48 112.88,37.811 L120.66,33.252 C122.44,32.251 124.11,32.362 125.89,33.363 L142.68,43.039 C150.91,47.821 155.14,55.049 155.14,64.613 Z M75.51,158.698 L58.83,149.133 C57.05,148.021 56.16,146.686 56.16,144.574 L56.16,135.677 C56.16,132.341 57.72,131.895 60.27,133.453 L82.74,146.353 C85.74,148.355 90.3,148.355 93.3,146.353 L115.66,133.453 C118.33,131.895 119.88,132.341 119.88,135.677 L119.88,144.574 C119.88,146.686 118.99,148.021 117.21,149.133 L100.42,158.698 C92.19,163.591 83.85,163.591 75.51,158.698 Z M90.19,131.785 L126.33,68.839 C127.22,67.171 126.11,65.392 124.33,65.392 L51.82,65.614 C49.6,65.614 48.71,67.171 49.82,69.062 L86.3,131.785 C87.41,133.786 88.97,133.786 90.19,131.785 L90.19,131.785 Z" id="Fill-44" fill="#B0B0D8"></path>
            <path d="M155.14,64.613 L155.14,83.964 C155.14,85.966 154.36,87.523 152.58,88.523 L144.79,92.972 C141.9,94.64 140.79,93.528 140.79,90.525 L140.79,64.613 C141.01,60.943 138.68,57.051 135.45,55.494 L113.1,42.482 C110.43,41.037 109.99,39.48 112.88,37.811 L120.66,33.252 C122.44,32.251 124.11,32.362 125.89,33.363 L142.68,43.039 C150.91,47.821 155.14,55.049 155.14,64.613 Z M88.19,147.799 L88.19,162.367 C92.3,162.256 96.42,161.144 100.42,158.698 L117.21,149.133 C118.99,148.021 119.88,146.686 119.88,144.574 L119.88,135.677 C119.88,132.341 118.33,131.895 115.66,133.453 L93.3,146.353 C91.86,147.243 90.08,147.799 88.19,147.799 Z M90.19,131.785 L126.33,68.839 C127.22,67.171 126.11,65.392 124.33,65.392 L88.19,65.503 L88.19,133.341 C88.85,133.341 89.63,132.786 90.19,131.785 L90.19,131.785 Z" id="Fill-45" fill="#8989B1"></path>
        </g>
    </g>
</svg>