<?xml version="1.0" encoding="UTF-8"?>
<svg width="177px" height="178px" viewBox="0 0 177 178" version="1.1" xmlns="http://www.w3.org/2000/svg" xmlns:xlink="http://www.w3.org/1999/xlink">
    <title>Ground</title>
    <g id="Page-1" stroke="none" stroke-width="1" fill="none" fill-rule="evenodd">
        <g id="Ground" transform="translate(0.331000, 0.843000)">
            <g id="Group-29">
                <path d="M176.491,88.19 C176.491,137.011 137.011,176.491 88.3,176.491 C39.59,176.491 0,137.011 0,88.19 C0,39.48 39.59,0 88.3,0 C137.011,0 176.491,39.48 176.491,88.19 Z" id="Fill-27" fill="#CAAB4B"></path>
                <path d="M176.491,88.19 C176.491,137.011 137.011,176.491 88.3,176.491 L88.3,0 C137.011,0 176.491,39.48 176.491,88.19 Z" id="Fill-28" fill="#A57E03"></path>
            </g>
            <path d="M91.749,64.947 C110.543,65.058 116.881,89.636 104.204,102.425 C89.969,116.882 66.169,102.203 70.952,81.74 C73.288,72.176 81.85,64.725 91.749,64.947 Z M106.65,114.658 C119.44,114.325 129.449,127.892 129.226,140.348 C129.003,151.691 120.551,162.59 108.763,162.478 C98.754,162.367 92.416,154.694 92.971,145.018 C93.194,140.792 94.529,136.011 94.973,131.562 C95.974,123.666 96.086,114.435 106.65,114.658 Z M144.351,65.281 C157.807,65.169 162.144,77.848 158.474,88.969 C155.805,96.975 149.355,106.873 142.794,112.211 C135.232,118.328 126.223,112.1 123.666,103.648 C119.329,89.413 126.891,65.058 144.351,65.281 Z M55.16,28.025 C81.517,29.137 78.514,68.283 53.937,69.507 C40.925,70.174 30.026,60.61 32.139,46.708 C33.807,35.81 44.15,27.58 55.16,28.025 Z M109.653,23.02 C129.226,23.02 127.558,55.049 106.65,53.826 C87.188,52.602 88.189,25.912 106.873,23.132 C107.762,23.02 108.652,22.909 109.653,23.02 Z M44.039,94.974 C59.831,94.751 72.731,109.987 66.726,124.89 C61.944,136.789 49.044,138.902 38.701,132.229 C27.914,125.445 17.682,111.989 29.693,100.645 C33.586,97.087 38.701,95.196 44.039,94.974 L44.039,94.974 Z" id="Fill-30" fill="#6B5A27"></path>
            <path d="M106.65,114.658 C119.44,114.325 129.449,127.892 129.226,140.348 C129.003,151.691 120.551,162.59 108.763,162.478 C98.754,162.367 92.416,154.694 92.971,145.018 C93.194,140.792 94.529,136.011 94.973,131.562 C95.974,123.666 96.086,114.435 106.65,114.658 Z M144.351,65.281 C157.807,65.169 162.144,77.848 158.474,88.969 C155.805,96.975 149.355,106.873 142.794,112.211 C135.232,118.328 126.223,112.1 123.666,103.648 C119.329,89.413 126.891,65.058 144.351,65.281 Z M109.653,23.02 C129.226,23.02 127.558,55.049 106.65,53.826 C87.188,52.602 88.189,25.912 106.873,23.132 C107.762,23.02 108.652,22.909 109.653,23.02 Z M88.3,108.097 L88.3,65.169 C89.413,65.058 90.525,64.947 91.749,64.947 C110.543,65.058 116.881,89.636 104.204,102.425 C99.533,107.207 93.75,108.764 88.3,108.097 L88.3,108.097 Z" id="Fill-31" fill="#6B5A27"></path>
        </g>
    </g>
</svg>