<?xml version="1.0" encoding="UTF-8"?>
<svg width="177px" height="177px" viewBox="0 0 177 177" version="1.1" xmlns="http://www.w3.org/2000/svg" xmlns:xlink="http://www.w3.org/1999/xlink">
    <title>Psychic</title>
    <g id="Page-1" stroke="none" stroke-width="1" fill="none" fill-rule="evenodd">
        <g id="Psychic" transform="translate(0.415000, 0.320000)">
            <path d="M88.3,0 C137.01,0 176.495,39.48 176.495,88.19 C176.495,136.9 137.01,176.38 88.3,176.38 C39.479,176.38 5.68434189e-14,136.9 5.68434189e-14,88.19 C5.68434189e-14,39.48 39.479,0 88.3,0" id="Fill-67" fill="#F95599"></path>
            <path d="M88.3,0 C137.01,0 176.495,39.48 176.495,88.19 C176.495,136.9 137.01,176.38 88.3,176.38 L88.3,0" id="Fill-68" fill="#DF327A"></path>
            <path d="M87.967,52.047 L88.3,52.158 L88.523,52.047 C121.219,52.047 147.687,81.74 147.687,88.19 C147.687,94.641 121.219,124.334 88.523,124.334 L88.3,124.223 L87.967,124.334 C55.271,124.334 28.803,94.641 28.803,88.19 C28.803,81.74 55.271,52.047 87.967,52.047 Z M88.3,66.838 C100.088,66.838 109.653,76.402 109.653,88.19 C109.653,99.978 100.088,109.543 88.3,109.543 C76.401,109.543 66.948,99.978 66.948,88.19 C66.948,76.402 76.401,66.838 88.3,66.838 Z M88.634,39.48 C130.783,39.48 164.815,79.405 164.815,88.19 C164.815,96.976 130.783,136.9 88.634,136.9 L87.856,136.9 C45.707,136.9 11.676,96.976 11.676,88.19 C11.676,79.405 45.707,39.48 87.856,39.48 L88.634,39.48 Z" id="Fill-69" fill="#FFA6CB"></path>
            <path d="M88.3,109.543 L88.3,66.838 C100.088,66.838 109.653,76.402 109.653,88.19 C109.653,99.978 100.088,109.543 88.3,109.543 Z M88.3,39.48 L88.634,39.48 C130.783,39.48 164.815,79.405 164.815,88.19 C164.815,96.976 130.783,136.9 88.634,136.9 L88.3,136.9 L88.3,124.223 L88.523,124.334 C121.219,124.334 147.687,94.641 147.687,88.19 C147.687,81.74 121.219,52.047 88.523,52.047 L88.3,52.158 L88.3,39.48 L88.3,39.48 Z" id="Fill-70" fill="#EF6FA4"></path>
        </g>
    </g>
</svg>