<?xml version="1.0" encoding="UTF-8"?>
<svg width="177px" height="178px" viewBox="0 0 177 178" version="1.1" xmlns="http://www.w3.org/2000/svg" xmlns:xlink="http://www.w3.org/1999/xlink">
    <title>Water</title>
    <g id="Page-1" stroke="none" stroke-width="1" fill="none" fill-rule="evenodd">
        <g id="Water" transform="translate(0.000000, 0.843000)">
            <g id="Group-4">
                <path d="M88.19,0 C137.011,0 176.491,39.48 176.491,88.19 C176.491,137.011 137.011,176.491 88.19,176.491 C39.479,176.491 0,137.011 0,88.19 C0,39.48 39.479,0 88.19,0" id="Fill-1" fill="#3399FF"></path>
                <path d="M176.491,88.19 C176.491,137.011 137.011,176.491 88.19,176.491 L88.19,0 C137.011,0 176.491,39.48 176.491,88.19 Z" id="Fill-3" fill="#0E74DB"></path>
            </g>
            <path d="M76.735,51.824 C27.691,86.967 44.039,144.129 93.75,138.235 C114.769,135.788 126.446,119.218 126.001,102.759 C125.779,94.084 122.332,87.523 114.992,78.626 C101.758,62.834 109.987,45.151 126.446,36.032 C131.228,33.363 129.671,31.806 124.667,32.474 C108.097,34.586 90.859,41.704 76.735,51.824 Z" id="Fill-5" fill="#9FCFFF"></path>
            <path d="M124.667,32.474 C112.434,34.03 99.756,38.368 88.19,44.596 L88.19,138.68 C90.081,138.68 91.86,138.457 93.75,138.235 C114.769,135.788 126.446,119.218 126.001,102.759 C125.779,94.084 122.332,87.523 114.992,78.626 C101.758,62.834 109.987,45.151 126.446,36.032 C131.228,33.363 129.671,31.806 124.667,32.474" id="Fill-6" fill="#5FAFFF"></path>
            <path d="M104.649,77.848 C107.874,77.848 110.432,81.073 110.432,85.076 C110.432,89.191 107.874,92.416 104.649,92.416 C101.424,92.416 98.866,89.191 98.866,85.076 C98.866,81.073 101.424,77.848 104.649,77.848" id="Fill-7" fill="#FFFFFE"></path>
            <path d="M112.323,92.972 C113.546,92.972 114.547,94.195 114.547,95.752 C114.547,97.198 113.546,98.421 112.323,98.421 C111.099,98.421 110.209,97.198 110.209,95.752 C110.209,94.195 111.099,92.972 112.323,92.972" id="Fill-8" fill="#FFFFFE"></path>
        </g>
    </g>
</svg>