<?xml version="1.0" encoding="UTF-8"?>
<svg width="177px" height="178px" viewBox="0 0 177 178" version="1.1" xmlns="http://www.w3.org/2000/svg" xmlns:xlink="http://www.w3.org/1999/xlink">
    <title>Grass</title>
    <g id="Page-1" stroke="none" stroke-width="1" fill="none" fill-rule="evenodd">
        <g id="Grass" transform="translate(0.257000, 0.843000)">
            <g id="Group-22">
                <path d="M88.19,0 C137.012,0 176.492,39.48 176.492,88.19 C176.492,137.011 137.012,176.491 88.19,176.491 C39.48,176.491 0,137.011 0,88.19 C0,39.48 39.48,0 88.19,0" id="Fill-20" fill="#77CC55"></path>
                <path d="M88.19,0 C137.012,0 176.492,39.48 176.492,88.19 C176.492,137.011 137.012,176.491 88.19,176.491 L88.19,0" id="Fill-21" fill="#36A20B"></path>
            </g>
            <path d="M84.409,26.134 C67.172,40.147 16.348,103.203 75.846,136.344 C88.969,143.684 84.632,159.476 84.632,159.476 C86.188,159.809 90.081,159.809 91.638,159.476 C91.638,159.476 87.301,143.795 100.424,136.344 C168.039,97.754 104.872,72.732 91.971,26.246 C90.859,22.242 87.412,23.688 84.409,26.134" id="Fill-23" fill="#E3E562"></path>
            <path d="M88.19,159.698 C89.525,159.698 90.859,159.587 91.638,159.476 C91.638,159.476 87.301,143.795 100.424,136.344 C168.039,97.754 104.872,72.732 91.971,26.246 C91.304,23.91 89.859,23.465 88.19,23.91 L88.19,159.698" id="Fill-24" fill="#B9CE37"></path>
        </g>
    </g>
</svg>