<?xml version="1.0" encoding="UTF-8"?>
<svg width="177px" height="178px" viewBox="0 0 177 178" version="1.1" xmlns="http://www.w3.org/2000/svg" xmlns:xlink="http://www.w3.org/1999/xlink">
    <title>Bug</title>
    <g id="Page-1" stroke="none" stroke-width="1" fill="none" fill-rule="evenodd">
        <g id="Bug" transform="translate(0.257000, 0.686000)">
            <path d="M88.19,0 C137.012,0 176.492,39.481 176.492,88.302 C176.492,137.012 137.012,176.491 88.19,176.491 C39.48,176.491 0,137.012 0,88.302 C0,39.481 39.48,0 88.19,0" id="Fill-93" fill="#AABB23"></path>
            <path d="M88.19,0 C137.012,0 176.492,39.481 176.492,88.302 C176.492,137.012 137.012,176.491 88.19,176.491 L88.19,0" id="Fill-94" fill="#798519"></path>
            <path d="M112.1,65.948 L117.995,60.054 C119.329,58.72 121.554,58.72 122.888,60.054 L128.782,65.948 C130.117,67.283 130.117,69.507 128.782,70.842 C127.448,72.176 125.335,72.176 124,70.842 L120.441,67.283 L116.883,70.731 C120.775,75.513 123.444,81.74 124.334,89.303 L125.335,88.302 C126.669,86.967 128.782,86.967 130.117,88.302 L136.122,94.195 C137.457,95.53 137.457,97.644 136.122,98.978 C134.787,100.313 132.563,100.313 131.34,98.978 L127.781,95.53 L124.556,98.645 C124.222,104.761 122.888,110.544 120.775,115.659 L125.001,115.771 C126.891,115.771 128.449,117.327 128.449,119.108 L128.337,127.559 C128.337,129.449 126.781,130.896 124.89,130.896 C123.11,130.896 121.554,129.338 121.554,127.559 L121.554,122.555 L117.439,122.443 C110.766,133.453 100.201,140.57 88.19,140.57 C76.291,140.57 65.726,133.453 59.053,122.443 L54.938,122.555 L54.938,127.559 C54.938,129.338 53.381,130.896 51.602,130.896 C49.712,130.896 48.155,129.449 48.155,127.559 L48.043,119.108 C48.043,117.327 49.6,115.771 51.491,115.771 L55.717,115.659 C53.604,110.544 52.269,104.761 51.936,98.645 L48.711,95.53 L45.152,98.978 C43.929,100.313 41.704,100.313 40.37,98.978 C39.035,97.644 39.035,95.53 40.37,94.195 L46.375,88.302 C47.71,86.967 49.823,86.967 51.157,88.302 L52.158,89.303 C53.048,81.74 55.717,75.513 59.609,70.731 L56.051,67.283 L52.492,70.842 C51.157,72.176 49.044,72.176 47.71,70.842 C46.375,69.507 46.375,67.283 47.71,65.948 L53.604,60.054 C54.938,58.72 57.162,58.72 58.386,60.054 L64.391,65.948 C66.393,64.392 68.617,63.057 70.952,61.944 C70.842,61.389 70.73,60.722 70.73,60.054 C70.73,54.16 73.733,47.265 79.293,43.706 L76.402,40.815 L74.289,42.928 C73.511,43.706 72.287,43.706 71.509,42.928 C70.619,42.15 70.619,40.815 71.509,40.036 L74.956,36.589 C75.735,35.811 77.069,35.811 77.848,36.589 L83.186,41.927 C84.743,41.371 86.411,41.149 88.19,41.149 C90.081,41.149 91.749,41.371 93.306,41.927 L98.644,36.589 C99.423,35.811 100.757,35.811 101.535,36.589 L104.983,40.036 C105.873,40.815 105.873,42.15 104.983,42.928 C104.204,43.706 102.981,43.706 102.203,42.928 L100.09,40.815 L97.199,43.706 C102.759,47.265 105.762,54.16 105.762,60.054 C105.762,60.722 105.65,61.389 105.539,61.944 C107.875,63.057 110.099,64.392 112.1,65.948 Z" id="Fill-95" fill="#D4E92C"></path>
            <g id="Group-99" transform="translate(88.190000, 36.005500)" fill="#BBCE24">
                <path d="M17.349,25.9385 C19.685,27.0515 21.909,28.3865 23.91,29.9425 L29.805,24.0485 C31.139,22.7145 33.364,22.7145 34.698,24.0485 L40.592,29.9425 C41.927,31.2775 41.927,33.5015 40.592,34.8365 C39.258,36.1705 37.145,36.1705 35.81,34.8365 L32.251,31.2775 L28.693,34.7255 C32.585,39.5075 35.254,45.7345 36.144,53.2975 L37.145,52.2965 C38.479,50.9615 40.592,50.9615 41.927,52.2965 L47.932,58.1895 C49.267,59.5245 49.267,61.6385 47.932,62.9725 C46.597,64.3075 44.373,64.3075 43.15,62.9725 L39.591,59.5245 L36.366,62.6395 C36.032,68.7555 34.698,74.5385 32.585,79.6535 L36.811,79.7655 C38.701,79.7655 40.259,81.3215 40.259,83.1025 L40.147,91.5535 C40.147,93.4435 38.591,94.8905 36.7,94.8905 C34.92,94.8905 33.364,93.3325 33.364,91.5535 L33.364,86.5495 L29.249,86.4375 C22.576,97.4475 12.011,104.5645 0,104.5645 L0,5.1435 C1.891,5.1435 3.559,5.3655 5.116,5.9215 L10.454,0.5835 C11.233,-0.1945 12.567,-0.1945 13.345,0.5835 L16.793,4.0305 C17.683,4.8095 17.683,6.1445 16.793,6.9225 C16.014,7.7005 14.791,7.7005 14.013,6.9225 L11.9,4.8095 L9.009,7.7005 C14.569,11.2595 17.572,18.1545 17.572,24.0485 C17.572,24.7165 17.46,25.3835 17.349,25.9385" id="Fill-96"></path>
            </g>
        </g>
    </g>
</svg>