<?xml version="1.0" encoding="UTF-8"?>
<svg width="178px" height="177px" viewBox="0 0 178 177" version="1.1" xmlns="http://www.w3.org/2000/svg" xmlns:xlink="http://www.w3.org/1999/xlink">
    <title>Electric</title>
    <g id="Page-1" stroke="none" stroke-width="1" fill="none" fill-rule="evenodd">
        <g id="Electric" transform="translate(0.737000, 0.320000)">
            <path d="M88.19,0 C137.011,0 176.491,39.48 176.491,88.19 C176.491,136.9 137.011,176.38 88.19,176.38 C39.479,176.38 0,136.9 0,88.19 C0,39.48 39.479,0 88.19,0" id="Fill-52" fill="#FCCC33"></path>
            <path d="M88.19,0 C137.011,0 176.491,39.48 176.491,88.19 C176.491,136.9 137.011,176.38 88.19,176.38 L88.19,0" id="Fill-53" fill="#F09200"></path>
            <path d="M36.81,114.214 L95.418,23.577 C99.311,17.46 100.2,16.682 98.199,24.244 L83.964,77.514 L138.457,58.83 C140.792,57.941 140.792,60.388 139.68,62.167 L81.072,152.804 C77.18,158.92 76.29,159.699 78.292,152.137 L92.527,98.867 L38.034,117.55 C35.699,118.439 35.699,115.993 36.81,114.214" id="Fill-54" fill="#FFFFFE"></path>
            <path d="M88.19,76.068 L138.457,58.83 C140.792,57.941 140.792,60.388 139.68,62.167 L88.19,141.794 L88.19,114.881 L92.527,98.867 L88.19,100.312 L88.19,76.068 Z M88.19,34.587 L95.418,23.577 C99.311,17.46 100.2,16.682 98.199,24.244 L88.19,61.5 L88.19,34.587 L88.19,34.587 Z" id="Fill-55" fill="#F9C623"></path>
        </g>
    </g>
</svg>