<?xml version="1.0" encoding="UTF-8"?>
<svg width="177px" height="178px" viewBox="0 0 177 178" version="1.1" xmlns="http://www.w3.org/2000/svg" xmlns:xlink="http://www.w3.org/1999/xlink">
    <title>Dark</title>
    <g id="Page-1" stroke="none" stroke-width="1" fill="none" fill-rule="evenodd">
        <g id="Dark" transform="translate(0.415000, 0.686000)">
            <path d="M88.3,0 C137.01,0 176.495,39.481 176.495,88.302 C176.495,137.012 137.01,176.491 88.3,176.491 C39.479,176.491 0,137.012 0,88.302 C0,39.481 39.479,0 88.3,0" id="Fill-107" fill="#775544"></path>
            <path d="M88.3,0 C137.01,0 176.495,39.481 176.495,88.302 C176.495,137.012 137.01,176.491 88.3,176.491 L88.3,0" id="Fill-108" fill="#4C352A"></path>
            <path d="M88.3,20.13 C99.087,20.13 109.43,22.688 118.549,27.247 C114.658,26.135 110.654,25.579 106.428,25.579 C80.849,25.579 60.165,46.375 60.165,71.954 C60.165,97.532 80.849,118.217 106.428,118.217 C132.006,118.217 152.802,97.532 152.802,71.954 C152.802,69.507 152.581,67.061 152.247,64.725 C154.916,72.065 156.361,79.961 156.361,88.302 C156.361,125.891 125.889,156.362 88.3,156.362 C50.6,156.362 20.128,125.891 20.128,88.302 C20.128,50.602 50.6,20.13 88.3,20.13" id="Fill-109" fill="#B88C76"></path>
            <path d="M88.3,114.547 C93.861,116.883 99.978,118.217 106.428,118.217 C132.006,118.217 152.802,97.532 152.802,71.954 C152.802,69.507 152.581,67.061 152.247,64.725 C154.916,72.065 156.361,79.961 156.361,88.302 C156.361,125.891 125.889,156.362 88.3,156.362 L88.3,114.547 Z M88.3,20.13 C99.087,20.13 109.43,22.688 118.549,27.247 C114.658,26.135 110.654,25.579 106.428,25.579 C99.978,25.579 93.861,26.913 88.3,29.36 L88.3,20.13 L88.3,20.13 Z" id="Fill-110" fill="#815D4A"></path>
        </g>
    </g>
</svg>