<?xml version="1.0" encoding="UTF-8"?>
<svg width="177px" height="177px" viewBox="0 0 177 177" version="1.1" xmlns="http://www.w3.org/2000/svg" xmlns:xlink="http://www.w3.org/1999/xlink">
    <title>Ice</title>
    <g id="Page-1" stroke="none" stroke-width="1" fill="none" fill-rule="evenodd">
        <g id="Ice" transform="translate(0.000000, 0.320000)">
            <path d="M176.491,88.19 C176.491,136.9 137.011,176.38 88.19,176.38 C39.479,176.38 0,136.9 0,88.19 C0,39.48 39.479,0 88.19,0 C137.011,0 176.491,39.48 176.491,88.19 Z" id="Fill-47" fill="#66CCFF"></path>
            <path d="M176.491,88.19 C176.491,136.9 137.011,176.38 88.19,176.38 L88.19,0 C137.011,0 176.491,39.48 176.491,88.19 Z" id="Fill-48" fill="#53ABD7"></path>
            <path d="M93.306,29.805 L93.306,35.143 L95.085,33.364 C97.198,31.25 100.645,31.25 102.758,33.364 C104.76,35.476 104.76,38.924 102.758,41.037 L93.306,50.379 L93.306,78.96 L118.439,64.502 L121.887,51.713 C122.665,48.822 125.668,47.042 128.448,47.821 C131.34,48.6 133.119,51.602 132.34,54.494 L131.673,56.829 L136.344,54.16 C138.902,52.603 142.238,53.493 143.684,56.162 C145.241,58.72 144.351,62.056 141.793,63.501 L137.123,66.171 L139.458,66.838 C142.35,67.617 144.018,70.619 143.239,73.399 C142.461,76.291 139.569,78.07 136.678,77.292 L123.889,73.844 L99.422,87.968 L123.444,101.869 L136.233,98.422 C139.124,97.643 142.127,99.423 142.906,102.314 C143.684,105.094 141.905,108.097 139.124,108.875 L136.678,109.543 L141.349,112.212 C143.906,113.658 144.796,116.994 143.351,119.552 C141.905,122.221 138.568,123.11 135.899,121.554 L131.34,118.885 L131.895,121.22 C132.674,124.111 131.006,127.114 128.115,127.893 C125.223,128.671 122.22,126.892 121.442,124 L118.105,111.211 L93.306,96.976 L93.306,126.002 L102.758,135.344 C104.76,137.457 104.76,140.904 102.758,143.018 C100.645,145.13 97.198,145.13 95.085,143.018 L93.306,141.238 L93.306,146.576 C93.306,149.578 90.859,152.025 87.967,152.025 C84.965,152.025 82.518,149.578 82.518,146.576 L82.518,141.238 L80.739,143.018 C78.737,145.13 75.29,145.13 73.177,143.018 C71.063,140.904 71.063,137.457 73.177,135.344 L82.518,126.002 L82.518,97.754 L58.386,111.656 L55.049,124.445 C54.271,127.337 51.268,129.005 48.376,128.226 C45.485,127.448 43.817,124.445 44.595,121.665 L45.151,119.218 L40.48,121.998 C37.923,123.444 34.586,122.555 33.141,119.996 C31.695,117.438 32.585,114.102 35.143,112.545 L39.702,109.876 L37.367,109.32 C34.586,108.542 32.807,105.539 33.585,102.648 C34.364,99.756 37.367,98.088 40.258,98.755 L53.047,102.203 L77.736,87.968 L52.602,73.511 L39.813,76.958 C36.922,77.625 33.919,75.957 33.252,73.066 C32.474,70.174 34.142,67.171 37.033,66.393 L39.369,65.837 L34.698,63.168 C32.14,61.611 31.25,58.275 32.807,55.717 C34.253,53.159 37.589,52.269 40.147,53.715 L44.818,56.384 L44.15,54.049 C43.372,51.268 45.151,48.266 47.932,47.487 C50.823,46.709 53.826,48.377 54.605,51.268 L58.052,64.058 L82.518,78.182 L82.518,50.379 L73.177,41.037 C71.063,38.924 71.063,35.476 73.177,33.364 C75.29,31.25 78.737,31.25 80.739,33.364 L82.518,35.143 L82.518,29.805 C82.518,26.802 84.965,24.355 87.967,24.355 C90.859,24.355 93.306,26.802 93.306,29.805 Z" id="Fill-49" fill="#E7F6FE"></path>
            <path d="M88.19,24.355 C91.082,24.467 93.306,26.914 93.306,29.805 L93.306,35.143 L95.085,33.364 C97.198,31.25 100.645,31.25 102.758,33.364 C104.76,35.476 104.76,38.924 102.758,41.037 L93.306,50.379 L93.306,78.96 L118.439,64.502 L121.887,51.713 C122.665,48.822 125.668,47.042 128.448,47.821 C131.34,48.6 133.119,51.602 132.34,54.494 L131.673,56.829 L136.344,54.16 C138.902,52.603 142.238,53.493 143.684,56.162 C145.241,58.72 144.351,62.056 141.793,63.501 L137.123,66.171 L139.458,66.838 C142.35,67.617 144.018,70.619 143.239,73.399 C142.461,76.291 139.569,78.07 136.678,77.292 L123.889,73.844 L99.422,87.968 L123.444,101.869 L136.233,98.422 C139.124,97.643 142.127,99.423 142.906,102.314 C143.684,105.094 141.905,108.097 139.124,108.875 L136.678,109.543 L141.349,112.212 C143.906,113.658 144.796,116.994 143.351,119.552 C141.905,122.221 138.568,123.11 135.899,121.554 L131.34,118.885 L131.895,121.22 C132.674,124.111 131.006,127.114 128.115,127.893 C125.223,128.671 122.22,126.892 121.442,124 L118.105,111.211 L93.306,96.976 L93.306,126.002 L102.758,135.344 C104.76,137.457 104.76,140.904 102.758,143.018 C100.645,145.13 97.198,145.13 95.085,143.018 L93.306,141.238 L93.306,146.576 C93.306,149.468 91.082,151.914 88.19,152.025 L88.19,24.355" id="Fill-50" fill="#BEE8FF"></path>
        </g>
    </g>
</svg>