<?xml version="1.0" encoding="UTF-8"?>
<svg width="177px" height="177px" viewBox="0 0 177 177" version="1.1" xmlns="http://www.w3.org/2000/svg" xmlns:xlink="http://www.w3.org/1999/xlink">
    <title>Normal</title>
    <g id="Page-1" stroke="none" stroke-width="1" fill="none" fill-rule="evenodd">
        <g id="Normal" transform="translate(0.500000, 0.320000)">
            <g id="Group-75">
                <path d="M88.19,0 C136.9,0 176.49,39.48 176.49,88.19 C176.49,136.9 136.9,176.38 88.19,176.38 C39.48,176.38 2.84217094e-14,136.9 2.84217094e-14,88.19 C2.84217094e-14,39.48 39.48,0 88.19,0" id="Fill-73" fill="#939384"></path>
                <path d="M88.19,0 C136.9,0 176.49,39.48 176.49,88.19 C176.49,136.9 136.9,176.38 88.19,176.38 L88.19,0" id="Fill-74" fill="#727265"></path>
            </g>
            <polygon id="Star" fill="#C9C9C9" points="88.5 117.317835 52 151.899854 63.6989075 102.998917 15.5 88.68 63.6989075 74.3610826 52 25.4601455 88.5 60.0421652 125 25.4601455 113.301092 74.3610826 161.5 88.68 113.301092 102.998917 125 151.899854"></polygon>
            <path d="M125,25.4601455 L113.301092,74.3610826 L161.5,88.68 L113.301092,102.998917 L125,151.899854 L88.5,117.317835 L88.5,60.0421652 L125,25.4601455 Z" id="Combined-Shape" fill="#B2B2B2"></path>
        </g>
    </g>
</svg>