<?xml version="1.0" encoding="UTF-8"?>
<svg width="178px" height="178px" viewBox="0 0 178 178" version="1.1" xmlns="http://www.w3.org/2000/svg" xmlns:xlink="http://www.w3.org/1999/xlink">
    <title>Poison</title>
    <g id="Page-1" stroke="none" stroke-width="1" fill="none" fill-rule="evenodd">
        <g id="Poison" transform="translate(0.737000, 0.686000)">
            <path d="M88.19,0 C137.011,0 176.491,39.481 176.491,88.302 C176.491,137.012 137.011,176.491 88.19,176.491 C39.479,176.491 0,137.012 0,88.302 C0,39.481 39.479,0 88.19,0" id="Fill-86" fill="#AA5599"></path>
            <path d="M88.19,0 C137.011,0 176.491,39.481 176.491,88.302 C176.491,137.012 137.011,176.491 88.19,176.491 L88.19,0" id="Fill-87" fill="#871170"></path>
            <path d="M92.638,83.854 C93.528,83.854 94.306,85.076 94.306,86.634 C94.306,88.191 93.528,89.526 92.638,89.526 C91.637,89.526 90.97,88.191 90.97,86.634 C90.97,85.076 91.637,83.854 92.638,83.854 Z M83.852,83.854 C84.742,83.854 85.521,85.076 85.521,86.634 C85.521,88.191 84.742,89.526 83.852,89.526 C82.963,89.526 82.184,88.191 82.184,86.634 C82.184,85.076 82.963,83.854 83.852,83.854 Z M102.202,51.38 C106.762,51.38 110.321,57.719 110.321,65.393 C110.321,73.177 106.762,79.404 102.202,79.404 C97.754,79.404 94.084,73.177 94.084,65.393 C94.084,57.719 97.754,51.38 102.202,51.38 Z M74.288,51.38 C78.737,51.38 82.407,57.719 82.407,65.393 C82.407,73.177 78.737,79.404 74.288,79.404 C69.729,79.404 66.17,73.177 66.17,65.393 C66.17,57.719 69.729,51.38 74.288,51.38 Z M143.016,114.992 L143.016,114.992 C143.795,117.884 142.015,120.997 139.124,121.777 L109.653,129.672 L139.124,137.568 C142.015,138.347 143.795,141.349 143.016,144.352 C142.238,147.243 139.124,149.023 136.233,148.244 L88.19,135.344 L40.258,148.244 C37.255,149.023 34.253,147.243 33.474,144.352 C32.696,141.349 34.475,138.347 37.366,137.568 L66.837,129.672 L37.366,121.777 C34.475,120.997 32.696,117.884 33.474,114.992 C34.253,111.989 37.255,110.21 40.258,111.1 L88.19,123.889 L136.233,111.1 C139.124,110.21 142.238,111.989 143.016,114.992 Z M126.78,66.615 C126.78,79.071 120.886,90.193 111.655,97.198 C105.983,118.774 70.507,118.774 64.724,97.198 C55.605,90.193 49.711,79.071 49.711,66.615 C49.711,45.374 66.949,28.026 88.19,28.026 C109.542,28.026 126.78,45.374 126.78,66.615 Z" id="Fill-88" fill="#FDECFA"></path>
            <g id="Group-92" transform="translate(88.190000, 28.026000)" fill="#FFD7F8">
                <path d="M4.448,55.828 C5.338,55.828 6.116,57.05 6.116,58.608 C6.116,60.165 5.338,61.5 4.448,61.5 C3.447,61.5 2.78,60.165 2.78,58.608 C2.78,57.05 3.447,55.828 4.448,55.828 Z M14.012,23.354 C18.572,23.354 22.131,29.693 22.131,37.367 C22.131,45.151 18.572,51.378 14.012,51.378 C9.564,51.378 5.894,45.151 5.894,37.367 C5.894,29.693 9.564,23.354 14.012,23.354 Z M0,107.318 L0,95.863 L48.043,83.074 C50.934,82.184 54.048,83.963 54.826,86.966 C55.605,89.858 53.825,92.971 50.934,93.751 L21.463,101.646 L50.934,109.542 C53.825,110.321 55.605,113.323 54.826,116.326 C54.048,119.217 50.934,120.997 48.043,120.218 L0,107.318 Z M0,0 C21.352,0 38.59,17.348 38.59,38.589 C38.59,51.045 32.696,62.167 23.465,69.172 C20.685,79.96 10.343,85.298 0,85.298 L0,0 L0,0 Z" id="Fill-89"></path>
            </g>
        </g>
    </g>
</svg>