<?xml version="1.0" encoding="UTF-8"?>
<svg width="177px" height="178px" viewBox="0 0 177 178" version="1.1" xmlns="http://www.w3.org/2000/svg" xmlns:xlink="http://www.w3.org/1999/xlink">
    <title>Flying</title>
    <g id="Page-1" stroke="none" stroke-width="1" fill="none" fill-rule="evenodd">
        <g id="Flying" transform="translate(0.331000, 0.686000)">
            <path d="M176.491,88.302 C176.491,137.012 137.011,176.491 88.3,176.491 C39.59,176.491 0,137.012 0,88.302 C0,39.481 39.59,0 88.3,0 C137.011,0 176.491,39.481 176.491,88.302 Z" id="Fill-100" fill="#7886DF"></path>
            <path d="M88.3,0 C137.011,0 176.491,39.481 176.491,88.302 C176.491,137.012 137.011,176.491 88.3,176.491 L88.3,0" id="Fill-101" fill="#626EB8"></path>
            <path d="M53.937,85.188 C105.65,46.486 134.12,24.244 142.461,29.249 C150.69,34.031 115.659,68.729 117.327,74.401 C119.106,80.072 145.908,80.295 146.13,84.521 C146.463,88.746 122.22,94.418 120.441,99.2 C118.772,104.094 146.13,112.546 145.908,118.44 C145.574,124.334 113.434,116.216 111.432,120.442 C109.43,124.667 116.771,138.68 111.877,142.017 C106.873,145.353 87.188,127.781 83.185,130.896 C79.293,134.009 78.18,149.801 56.939,147.799 C42.705,146.465 32.028,135.9 30.583,122.777 C28.692,105.205 41.37,94.529 53.937,85.188" id="Fill-102" fill="#FFFFFE"></path>
            <g id="Group-106" transform="translate(88.300000, 28.546375)" fill="#E4E5E2">
                <path d="M0,30.951625 C30.25,8.59862499 47.822,-3.07837501 54.161,0.702624985 C62.39,5.48462499 27.359,40.182625 29.027,45.854625 C30.806,51.525625 57.608,51.748625 57.83,55.974625 C58.163,60.199625 33.92,65.871625 32.141,70.653625 C30.472,75.547625 57.83,83.999625 57.608,89.893625 C57.274,95.787625 25.134,87.669625 23.132,91.895625 C21.13,96.120625 28.471,110.133625 23.577,113.470625 C19.685,116.027625 7.34,106.352625 0,103.016625 L0,30.951625" id="Fill-103"></path>
            </g>
        </g>
    </g>
</svg>