<?xml version="1.0" encoding="UTF-8"?>
<svg width="177px" height="178px" viewBox="0 0 177 178" version="1.1" xmlns="http://www.w3.org/2000/svg" xmlns:xlink="http://www.w3.org/1999/xlink">
    <title>Fairy</title>
    <g id="Page-1" stroke="none" stroke-width="1" fill="none" fill-rule="evenodd">
        <g id="Fairy" transform="translate(0.500000, 0.686000)">
            <g id="Group-115">
                <path d="M88.19,0 C136.9,0 176.49,39.481 176.49,88.302 C176.49,137.012 136.9,176.491 88.19,176.491 C39.48,176.491 0,137.012 0,88.302 C0,39.481 39.48,0 88.19,0" id="Fill-113" fill="#EE99EE"></path>
                <path d="M88.19,0 C136.9,0 176.49,39.481 176.49,88.302 C176.49,137.012 136.9,176.491 88.19,176.491 L88.19,0" id="Fill-114" fill="#C37DC3"></path>
            </g>
            <path d="M37.81,41.816 C36.03,46.598 62.61,78.737 62.39,91.638 C62.28,97.865 32.03,108.208 39.48,110.321 C44.37,111.767 62.05,108.986 60.94,113.657 C59.72,118.328 47.71,136.456 51.38,135.344 C58.72,133.008 75.29,122.11 84.52,108.431 C87.63,103.76 88.74,103.649 91.97,108.431 C101.09,122.221 117.66,133.008 125.11,135.344 C128.67,136.456 116.66,118.328 115.55,113.657 C114.32,108.986 132.12,111.767 137.01,110.321 C144.46,108.208 114.21,97.865 114.1,91.638 C113.77,78.737 140.46,46.598 138.57,41.816 C136.9,37.367 108.32,56.495 93.41,71.954 C88.41,77.069 87.52,76.624 83.07,71.954 C68.17,56.495 39.48,37.367 37.81,41.816" id="Fill-116" fill="#F8C9F8"></path>
            <path d="M88.19,104.872 C89.3,104.872 90.41,106.096 91.97,108.431 C101.09,122.221 117.66,133.008 125.11,135.344 C128.67,136.456 116.66,118.328 115.55,113.657 C114.32,108.986 132.12,111.767 137.01,110.321 C144.46,108.208 114.21,97.865 114.1,91.638 C113.77,78.737 140.46,46.598 138.57,41.816 C136.9,37.367 108.32,56.495 93.41,71.954 C91.08,74.401 89.63,75.513 88.19,75.624 L88.19,104.872" id="Fill-117" fill="#E3A4E3"></path>
        </g>
    </g>
</svg>