<?xml version="1.0" encoding="UTF-8"?>
<svg width="177px" height="178px" viewBox="0 0 177 178" version="1.1" xmlns="http://www.w3.org/2000/svg" xmlns:xlink="http://www.w3.org/1999/xlink">
    <title>Fighting</title>
    <g id="Page-1" stroke="none" stroke-width="1" fill="none" fill-rule="evenodd">
        <g id="Fighting" transform="translate(0.000000, 0.686000)">
            <path d="M88.19,0 C137.011,0 176.491,39.481 176.491,88.302 C176.491,137.012 137.011,176.491 88.19,176.491 C39.479,176.491 0,137.012 0,88.302 C0,39.481 39.479,0 88.19,0" id="Fill-79" fill="#BB5544"></path>
            <path d="M88.19,0 C137.011,0 176.491,39.481 176.491,88.302 C176.491,137.012 137.011,176.491 88.19,176.491 L88.19,0" id="Fill-80" fill="#9A3221"></path>
            <path d="M102.203,32.808 L102.203,32.808 C108.097,32.808 112.879,37.59 112.879,43.484 L112.879,64.503 C112.879,70.285 108.097,75.068 102.203,75.068 C96.419,75.068 91.638,70.285 91.638,64.503 L91.638,43.484 C91.638,37.59 96.419,32.808 102.203,32.808 Z M76.624,25.691 L76.624,25.691 C82.407,25.691 87.189,30.472 87.189,36.255 L87.189,64.503 C87.189,70.285 82.407,75.068 76.624,75.068 C70.73,75.068 65.948,70.285 65.948,64.503 L65.948,36.255 C65.948,30.472 70.73,25.691 76.624,25.691 Z M126.78,37.479 L126.78,37.479 C131.895,37.479 136.233,41.704 136.233,46.932 L136.233,65.614 C136.233,70.842 131.895,75.068 126.78,75.068 C121.553,75.068 117.327,70.842 117.327,65.614 L117.327,46.932 C117.327,41.704 121.553,37.479 126.78,37.479 Z M49.044,79.738 C44.262,79.738 40.258,83.631 40.258,88.413 L40.258,113.213 C40.258,117.995 44.262,121.998 49.044,121.998 L64.502,121.998 C69.284,121.998 73.177,117.995 73.177,113.213 L73.177,100.98 L81.406,100.98 C87.3,100.98 92.083,96.197 92.083,90.304 C92.083,84.521 87.3,79.738 81.406,79.738 C70.619,79.738 59.831,79.738 49.044,79.738 Z M127.447,79.738 C132.229,79.738 136.233,83.631 136.233,88.413 L136.233,113.213 C136.233,117.995 132.229,121.998 127.447,121.998 C113.657,121.998 99.756,121.998 85.966,121.998 C81.406,121.998 77.736,118.217 77.736,113.657 C77.736,109.209 81.406,105.428 85.966,105.428 L96.531,105.428 L96.531,88.413 C96.531,83.631 100.423,79.738 105.205,79.738 L127.447,79.738 Z M104.204,126.447 C108.986,126.447 112.879,130.339 112.879,135.121 L112.879,142.128 C112.879,146.909 108.875,150.913 104.204,150.913 L74.622,150.913 C69.84,150.913 65.948,146.909 65.948,142.128 L65.948,135.121 C65.948,130.339 69.84,126.447 74.622,126.447 L104.204,126.447 Z M50.935,32.808 L50.935,32.808 C56.717,32.808 61.5,37.59 61.5,43.484 L61.5,64.503 C61.5,70.285 56.717,75.068 50.935,75.068 C45.04,75.068 40.258,70.285 40.258,64.503 L40.258,43.484 C40.258,37.59 45.04,32.808 50.935,32.808 L50.935,32.808 Z" id="Fill-81" fill="#E7C9C4"></path>
            <g id="Group-85" transform="translate(88.190000, 32.808000)" fill="#EEB8AF">
                <path d="M14.013,0 L14.013,0 C19.907,0 24.689,4.782 24.689,10.676 L24.689,31.695 C24.689,37.477 19.907,42.26 14.013,42.26 C8.229,42.26 3.448,37.477 3.448,31.695 L3.448,10.676 C3.448,4.782 8.229,0 14.013,0 Z M38.59,4.671 L38.59,4.671 C43.705,4.671 48.043,8.896 48.043,14.124 L48.043,32.806 C48.043,38.034 43.705,42.26 38.59,42.26 C33.363,42.26 29.137,38.034 29.137,32.806 L29.137,14.124 C29.137,8.896 33.363,4.671 38.59,4.671 Z M0,65.725 L0,49.377 C2.335,51.379 3.893,54.27 3.893,57.496 C3.893,60.832 2.335,63.723 0,65.725 Z M0,89.19 L0,72.62 L8.341,72.62 L8.341,55.605 C8.341,50.823 12.233,46.93 17.015,46.93 L39.257,46.93 C44.039,46.93 48.043,50.823 48.043,55.605 L48.043,80.405 C48.043,85.187 44.039,89.19 39.257,89.19 L0,89.19 Z M0,117.994 L0,93.639 L16.014,93.639 C20.796,93.639 24.689,97.531 24.689,102.313 L24.689,109.32 C24.689,114.101 20.685,117.994 16.014,117.994 L0,117.994 L0,117.994 Z" id="Fill-82"></path>
            </g>
        </g>
    </g>
</svg>